/* XPM */
static char *result[] = {
/* columns rows colors chars-per-pixel */
"32 32 5 1 ",
"  c gray32",
". c #848484",
"X c #CECECE",
"o c white",
"O c None",
/* pixels */
"OOOOOOOOOOOOOOOOOOOOOOOOOOOOOOOO",
"OOOOOOOOOOOOOOOOOOOOOOOOOOOOOOOO",
"OOOOOOOOOOOOOOOOOOOOOOOOOOOOOOOO",
"OOOOOOOOOOOOOOOOOOOOOOOOOOOOOOOO",
"OOOOOOOOOOOOOOOOOOOOOOOOOOOOOOOO",
"OOOOOOOOOOOOOOOOOOOOOOOOOOOOOOOO",
"OOOOOOOOOOOOOOOOOOOOOOOOOOOOOOOO",
"OOOOOOOOOOOOOOOOOOOOOOOOOOOOOOOO",
"OOOOOOOOOOOOOOOOOOOOOOOOOOOOOOOO",
"OOOOOOOO               OOOOOOOOO",
"OOOOOOOO               OOOOOOOOO",
"OOOOOOOO ooo o o o ooo OOOOOOOOO",
"OOOOOOOO o   o.o o  o  OOOOOOOOO",
"OOOOOOOO o   XoX o  o OOOOOOOOOO",
"OOOOOOOO ooo .o. o  o OOOOOOOOOO",
"OOOOOOOO o   XoX o  o OOOOOOOOOO",
"OOOOOOOO o   o.o o  o OOOOOOOOOO",
"OOOOOOOO ooo o o o  o OOOOOOOOOO",
"OOOOOOOO              OOOOOOOOOO",
"OOOOOOOOOOOOOOOOOOOOOOOOOOOOOOOO",
"OOOOOOOOOO           OOOOOOOOOOO",
"OOOOOOOOOO           OOOOOOOOOOO",
"OOOOOOOOOO XoooooooX OOOOOOOOOOO",
"OOOOOOOOOO  XoooooX  OOOOOOOOOOO",
"OOOOOOOOOOO  XoooX  OOOOOOOOOOOO",
"OOOOOOOOOOOO  XoX  OOOOOOOOOOOOO",
"OOOOOOOOOOOOO  X  OOOOOOOOOOOOOO",
"OOOOOOOOOOOOOO   OOOOOOOOOOOOOOO",
"OOOOOOOOOOOOOOOOOOOOOOOOOOOOOOOO",
"OOOOOOOOOOOOOOOOOOOOOOOOOOOOOOOO",
"OOOOOOOOOOOOOOOOOOOOOOOOOOOOOOOO",
"OOOOOOOOOOOOOOOOOOOOOOOOOOOOOOOO"
};
