/* XPM */
static char *result[] = {
/* columns rows colors chars-per-pixel */
"32 32 11 1 ",
"  c gray39",
". c #CE6B21",
"X c #FF9C00",
"o c #FFD600",
"O c yellow",
"+ c #94949C",
"@ c #EFCEB5",
"# c #CECECE",
"$ c #EFEFEF",
"% c white",
"& c None",
/* pixels */
"&&&&&&&&&&&&&&&&&&&&&&&&&&&&&&&&",
"&&&&&&&&&&&         &&&&&&&&&&&&",
"&&&&&&&&&  +#$$$$$#+  &&&&&&&&&&",
"&&&&&&&  #$%%%%%%%%%$#  &&&&&&&&",
"&&&&&& #$%%%%%%%%%%%%%$# &&&&&&&",
"&&&&& #%%%%%%%%%%%%%%%%%# &&&&&&",
"&&&& #%%@X%%%%@.@%%%%X@%%# &&&&&",
"&&& #%%%XOX%%@.X.@%%XOX%%%# &&&&",
"&&& $%%%%Xo%%.XoX.%%oX%%%%$ &&&&",
"&& #%%%%%%%%@.ooo.@%%%%%%%%# &&&",
"&& $%%%%%%%@.XoOoX.@%%%%%%%$ &&&",
"& #%%%%%@...XoOOOoX...@%%%%%# &&",
"& #%%%%%.XoOOOOOOOOOoX.%%%%%# &&",
"& $%%%%%.XooOOOOOOOooX.%%%%%$ &&",
"& $%%%%%@.XooOOOOOooX.@%%%%%$ &&",
"& $%%%%%%@.XoOOOOOoX.@%%%%%%$ &&",
"& #%%%%%%%.XOOOOOOOX.%%%%%%%# &&",
"& #%%%Xo%@.oOOoooOOo.@%oX%%%# &&",
"&& $%XOX%.XoOoooooOoX.%XOX%$ &&&",
"&& #%@X%%.XooX...XooX.%%X@%# &&&",
"&&& $%%%%.XX..@%@..XX.%%%%$ &&&&",
"&&& #%%%%@..@%%%%%@..@%%%%# &&&&",
"&&&& #%%%%%%%%%o%%%%%%%%%# &&&&&",
"&&&&& #$%%%%%%XOX%%%%%%$# &&&&&&",
"&&&&&& #$%%%%%@X@%%%%%$# &&&&&&&",
"&&&&&&&  #$%%%%%%%%%$#  &&&&&&&&",
"&&&&&&&&&  +#%%%%%#+  &&&&&&&&&&",
"&&&&&&&&&&&& +%%%+ &&&&&&&&&&&&&",
"&&&&&&&&&&&&& #%# &&&&&&&&&&&&&&",
"&&&&&&&&&&&&&& # &&&&&&&&&&&&&&&",
"&&&&&&&&&&&&&&& &&&&&&&&&&&&&&&&",
"&&&&&&&&&&&&&&&&&&&&&&&&&&&&&&&&"
};
